<svg width="187" height="59" fill="none" xmlns="http://www.w3.org/2000/svg"><path d="M25.032.456h3.584c1.75.128 3.37.49 4.864 1.088 1.664.555 3.264 1.408 4.8 2.56.384.299.576.405.576.32.043 0 .832-.64 2.368-1.92C42.931 1.139 43.763.477 43.72.52c.341-.213.96-.213 1.856 0 .213.128.341.341.384.64.043.427.064 3.2.064 8.32 0 5.675-.064 8.597-.192 8.768l-.256.128c-.17.085-.853.128-2.048.128s-1.877-.043-2.048-.128c-.299-.213-.47-.533-.512-.96-.341-3.157-1.472-5.888-3.392-8.192-.853-.939-1.664-1.685-2.432-2.24-1.365-.981-2.795-1.579-4.288-1.792-1.877-.384-4.181-.277-6.912.32-2.73.555-4.928 1.536-6.592 2.944-.981.768-1.707 1.536-2.176 2.304-1.792 2.603-2.688 6.699-2.688 12.288 0 5.845 1.003 10.07 3.008 12.672.213.299.47.597.768.896.555.555.917.896 1.088 1.024 1.664 1.408 3.861 2.39 6.592 2.944 2.39.512 4.501.661 6.336.448 3.883-.384 6.89-2.112 9.024-5.184 1.28-1.792 1.984-3.776 2.112-5.952 0-.725.15-1.173.448-1.344.17-.085.79-.128 1.856-.128 1.067 0 1.685.043 1.856.128.299.213.448.704.448 1.472-.128 2.048-.597 3.904-1.408 5.568-2.005 4.181-5.44 7.125-10.304 8.832a22.548 22.548 0 0 1-5.696 1.216c-1.365.128-3.093.107-5.184-.064-5.376-.597-9.856-2.133-13.44-4.608-3.413-2.517-5.845-5.653-7.296-9.408-.64-1.621-1.13-3.541-1.472-5.76-.17-1.536-.17-3.285 0-5.248v-.32c.427-3.413 1.493-6.485 3.2-9.216 2.603-4.224 6.55-7.232 11.84-9.024 2.73-.853 5.653-1.365 8.768-1.536Zm34.243.128c.086-.043.47-.064 1.153-.064.725.085 1.194.15 1.408.192 1.663.512 2.858 1.493 3.584 2.944.383.81.576 1.6.576 2.368 0 .81-.192 1.6-.576 2.368-.726 1.493-1.92 2.496-3.584 3.008-.384.085-.918.128-1.6.128-.726 0-1.26-.043-1.6-.128-1.707-.512-2.923-1.515-3.649-3.008-.34-.683-.512-1.472-.512-2.368 0-.597.022-1.024.064-1.28.214-.768.598-1.493 1.152-2.176.896-1.067 2.091-1.728 3.584-1.984Zm-.447 15.872c4.266-.17 6.314-.256 6.144-.256h.384v24.192h3.967V45h-.575l-4.097-.128a207.726 207.726 0 0 0-7.295 0L53.004 45h-.576v-4.608h4.415v-8.768c0-5.93-.02-8.981-.064-9.152-.17-.512-.448-.81-.832-.896-.597-.17-1.45-.256-2.56-.256h-.767v-4.608h.192l6.016-.256ZM80.672 4.744V4.36h4.608v12.224h8.576v4.608h-8.576v8.704c.043 6.016.128 9.216.256 9.6 0 .043.064.17.192.384.256.512.64.896 1.152 1.152.213.085.533.128.96.128.427 0 .704-.043.832-.128.683-.256 1.216-1.045 1.6-2.368.085-.299.15-1.216.192-2.752v-2.24h4.608v2.048c0 1.792-.15 3.115-.448 3.968-.47 1.408-1.301 2.624-2.496 3.648-1.408 1.067-2.944 1.728-4.608 1.984-.384.043-1.045.064-1.984.064-1.75-.043-3.179-.299-4.288-.768-1.408-.47-2.56-1.323-3.456-2.56-.683-.939-1.13-2.155-1.344-3.648-.043-.213-.064-3.179-.064-8.896v-8.32h-4.416v-3.904h.576a6.986 6.986 0 0 0 3.648-1.408c2.176-1.707 3.563-4.395 4.16-8.064.213-1.152.32-2.176.32-3.072Zm20.241 14.144v-2.304h.512l3.904.128c2.304.043 4.757.043 7.36 0l4.48-.128h.576v4.608h-1.408c-.896 0-1.344.043-1.344.128l2.944 6.592c1.877 4.224 2.859 6.336 2.944 6.336l5.696-12.928c0-.085-.448-.128-1.344-.128h-1.408v-4.608h.448l3.456.128c1.963.043 3.776.043 5.44 0 1.835-.085 2.773-.128 2.816-.128h.384v4.608h-4.736l-6.144 14.08c-4.437 9.899-6.656 14.87-6.656 14.912-1.664 3.285-4.032 5.525-7.104 6.72-2.347 1.024-4.501 1.216-6.464.576-2.176-.768-3.605-2.24-4.288-4.416a6.145 6.145 0 0 1-.32-2.304 4.302 4.302 0 0 1 1.216-2.88 4.788 4.788 0 0 1 1.92-1.088c.384-.128.832-.192 1.344-.192.512 0 .96.064 1.344.192a4.788 4.788 0 0 1 1.92 1.088c.683.768 1.088 1.685 1.216 2.752v.448h-4.352v.384c.128 1.237.683 2.027 1.664 2.368.811.256 1.92.085 3.328-.512 1.707-.81 2.944-2.005 3.712-3.584L116.082 45c0-.043-1.749-4.032-5.248-11.968l-5.184-11.84h-4.736v-2.304Z" fill="#080A1D"/><path d="M142.093 2.184V1.8h43.2v.384l.704 8.128c.384 5.333.597 8.043.64 8.128v.384h-2.304c-1.536 0-2.304-.021-2.304-.064 0-.853-.107-1.963-.32-3.328-.256-1.92-.619-3.499-1.088-4.736-.64-1.493-1.728-2.603-3.264-3.328-.64-.341-1.493-.597-2.56-.768-.384-.085-1.472-.15-3.264-.192h-2.496v33.984h9.792V45h-1.024l-7.552-.128a671.887 671.887 0 0 0-13.12 0l-7.552.128h-1.024v-4.608h9.792V6.408h-2.496c-1.792.043-2.88.107-3.264.192-2.005.384-3.541 1.13-4.608 2.24-.683.683-1.237 1.707-1.664 3.072-.341 1.237-.619 3.136-.832 5.696-.085.725-.128 1.11-.128 1.152 0 .043-.768.064-2.304.064h-2.304v-.384l.704-8.128c.384-5.333.597-8.043.64-8.128Z" fill="#972121"/></svg>